<?xml version="1.0" encoding="UTF-8"?>
<svg width="395px" height="370px" viewBox="0 0 395 370" version="1.1" xmlns="http://www.w3.org/2000/svg" xmlns:xlink="http://www.w3.org/1999/xlink">
    <title>Artboard</title>
    <g id="Artboard" stroke="none" stroke-width="1" fill="none" fill-rule="evenodd">
        <g id="logo-winamax" fill-rule="nonzero">
            <path d="M393.3,128.5 C392.2,126.5 390.1,125.2 387.9,125.2 L350,125.2 L375.7,8.3 C376.1,6.5 375.7,4.6 374.5,3.1 C373.3,1.6 371.6,0.8 369.7,0.8 L298.5,0.8 C295.6,0.8 293,2.9 292.4,5.8 L269,124.6 L264.5,124.6 L238.6,5.7 C238,2.9 235.5,0.8 232.6,0.8 L174.7,0.8 C171.8,0.8 169.3,2.8 168.7,5.7 L143,123.8 L128.5,123.8 L109.8,28.7 C109.2,25.8 106.7,23.7 103.7,23.7 L32.5,23.7 C30.6,23.7 28.9,24.5 27.7,26 C26.5,27.5 26.1,29.4 26.5,31.2 L46.9,123.8 L37.7,123.8 C34.2,123.8 30.8,125.5 28.8,128.2 C26.6,131.1 26.2,133.6 25.9,142.2 C25.5,150.7 25.7,152 26.2,153.7 L26.4,154.2 C26.5,154.6 26.7,154.9 26.9,155.3 L29,159.1 L28.5,160 C25.8,162.1 23.3,164.6 22.7,168.5 C22.7,168.6 22.7,168.8 22.6,168.9 C21.7,176.1 20.8,182.7 20,188.4 C19.9,188.4 19.8,188.4 19.7,188.4 C16.8,188.4 9.1,188.4 6,195.4 L5.8,195.9 C5.6,196.3 5.5,196.7 5.4,197.1 L0.9,218.1 C0.5,219.9 1,221.8 2.1,223.3 C3.3,224.8 5,225.6 6.9,225.6 L69.2,225.6 L99.7,364.5 C100.3,367.3 102.8,369.3 105.7,369.3 L167.4,369.3 C170.3,369.3 172.9,367.2 173.5,364.3 L198.9,236 L207.9,236 L228.7,341.5 C229.3,344.4 231.8,346.5 234.8,346.5 L296.5,346.5 C299.4,346.5 301.9,344.5 302.5,341.7 L328,225.4 L346.2,225.2 C346.6,225.2 347,225.3 347.3,225.3 C354,225.3 359.3,220.1 359.3,213.4 L359.3,204 L371.4,162.7 C371.5,162.7 371.6,162.7 371.7,162.7 C373.4,162.4 374.9,161.5 375.9,160.1 L393,134.9 C394.3,133 394.4,130.5 393.3,128.5 Z" id="Path" fill="#FFFFFF"></path>
            <path d="M369.7,149.5 L378.6,136.2 C378.6,136.2 358.7,136.2 357.9,136.2 L336.2,136.2 L363.5,11.8 L302.5,11.8 L278.2,135.6 L255.6,135.6 L228.7,11.8 L178.7,11.8 L175,29 L169.6,135.6 C169.6,135.6 169.8,62.8 169.2,55.4 L152,134.8 L148.5,134.8 L148.1,134.8 L119.3,134.8 L99.6,34.7 L38.6,34.7 L60.6,134.8 L37.6,134.8 C36.9,134.6 36.5,149.9 36.7,150.4 L41.5,158.9 L37,167.4 C37,167.4 33.6,169.8 33.6,170.3 C33.6,170.3 28.9,206.9 28.3,206.5 L21.8,199.6 C21.4,199.2 16.2,199.3 16,199.9 L12.8,214.4 L55.9,214.4 L63.3,214.4 L78,214.4 L80.3,225.1 L109.5,358.3 L163.2,358.3 L170.1,323.2 L170.1,274.1 C170.1,267.6 171.1,260.6 171.1,253.5 C171.1,261.6 172.9,292.9 173.5,306.6 L189.6,225 L216.8,225 L238.6,335.3 L292.3,335.3 L316.5,225 L318.9,214.3 L346.8,214.2 C347.5,214.3 348.1,213.9 348.1,213.3 L348.1,202.4 L364.7,145.7 C367.2,147.5 369.7,149.5 369.7,149.5 Z" id="Path" fill="#A73439"></path>
            <polygon id="Path" fill="#FAFAFB" points="274 188 279.6 150.3 288.4 150.3 289 154.6 294 188"></polygon>
            <polygon id="Path" fill="#FAFAFB" points="102.8 206.8 94.3 206.8 86.9 164.4 86.8 164.4 79.7 206.8 71.3 206.8 59.9 142.5 69.5 142.5 75.8 183.5 76 183.5 82.5 142.5 91 142.5 97.9 183.5 98.1 183.5 103.7 142.5 113.3 142.5"></polygon>
            <rect id="Rectangle" fill="#FAFAFB" x="121.1" y="142.5" width="10.2" height="64.3"></rect>
            <polygon id="Path" fill="#FAFAFB" points="174 206.8 165.1 206.8 152.1 166.7 151.9 166.7 151.9 206.8 142.7 206.8 142.7 142.5 152.2 142.5 164.6 179.4 164.8 179.4 164.8 142.5 174 142.5"></polygon>
            <polygon id="Path" fill="#FAFAFB" points="204.6 206.8 202.8 192.6 191.6 192.6 189.7 206.8 179.9 206.8 190.9 142.5 203.5 142.5 214.5 206.8"></polygon>
            <polygon id="Path" fill="#FAFAFB" points="261.4 206.8 252.5 206.8 252.5 156.5 252.3 156.5 243.1 206.8 238.1 206.8 228.9 156.5 228.8 156.5 228.8 206.8 219.9 206.8 219.9 142.5 233.2 142.5 240.5 180.2 240.7 180.2 247.9 142.5 261.4 142.5"></polygon>
            <polygon id="Path" fill="#FAFAFB" points="291.4 206.8 289.6 192.6 278.4 192.6 276.5 206.8 266.7 206.8 277.7 142.5 290.3 142.5 301.3 206.8"></polygon>
            <polygon id="Path" fill="#FAFAFB" points="327.7 206.8 320.8 183.5 320.6 183.5 313.5 206.8 303.5 206.8 315.1 173.2 304.2 142.5 314.3 142.5 320.6 162.9 320.8 162.9 326.4 142.5 336.4 142.5 326.2 173.2 337.7 206.8"></polygon>
            <polygon id="Path" fill="#A73439" points="197.2 155.3 193.1 182.9 201.3 182.9"></polygon>
            <polygon id="Path" fill="#A73439" points="284 155.3 279.9 182.9 288.1 182.9"></polygon>
        </g>
    </g>
</svg>